# xmcd CD database file
#
# Track frame offsets:
#	150
#	22723
#	44719
#	62517
#	83954
#	106155
#	124496
#	145049
#	165369
#	187840
#	214452
#	236941
#	258528
#
# Disc length: 3564 seconds
#
# Revision: 0
# Processed by: cddbd v1.5.2PL0 Copyright (c) Steve Scherf et al.
# Submitted via: CDex 1.91
#
DISCID=b40dea0d
DTITLE=Dave Koz - Hello Tomorrow
DYEAR=2010
DGENRE=Jazz
TTITLE0=Put The Top Down
TTITLE1=When Will I Know For Sure ?
TTITLE2=It's Always Been You
TTITLE3=Getaway
TTITLE4=This Guy's In Love With You
TTITLE5=Anything's Possible
TTITLE6=There's A Better Way
TTITLE7=Start All Over Again
TTITLE8=Think Big
TTITLE9=The Journey
TTITLE10=Remember Where You Come From
TTITLE11=Whisper In Your Ear
TTITLE12=What You Leave Behind
EXTD=YEAR: 2010
EXTT0=
EXTT1=
EXTT2=
EXTT3=
EXTT4=
EXTT5=
EXTT6=
EXTT7=
EXTT8=
EXTT9=
EXTT10=
EXTT11=
EXTT12=
PLAYORDER=
